# File created by Blade
# Date/Time:  Tue Jan 27 19:32:46 2015
#---------------------------------------------------------
:version 1.10
:name HOM
:units
  mass 1.0
  length 1.000000
  angle deg
:documentation
     Acclaim Skeleton File
:root
   axis xyz
   order TX TY TZ RX RY RZ
   position 0.000000 0.000000 0.000000
   orientation 0 0 0
:bonedata
   begin
      id 1
      name Spine_dum
      direction 0.000000 1.000000 0.000000
      length 6.116652
      axis 0.0 0.0 0.0 xyz
   end
   begin
      id 2
      name LeftUpLeg_dum
      direction 1.000000 0.000000 0.000000
      length 4.711765
      axis 0.0 0.0 0.0 xyz
   end
   begin
      id 3
      name RightUpLeg_dum
      direction -1.000000 0.000000 0.000000
      length 4.711765
      axis 0.0 0.0 0.0 xyz
   end
   begin
      id 4
      name Spine
      direction 0.000000 1.000000 0.000000
      length 0.000000
      axis 0.0 0.0 0.0 xyz
      dof rx ry rz
   end
   begin
      id 5
      name Spine_dum1
      direction 0.000000 1.000000 0.000000
      length 15.225563
      axis 0.0 0.0 0.0 xyz
   end
   begin
      id 6
      name Spine_dum2
      direction 0.000000 1.000000 0.000000
      length 8.977654
      axis 0.0 0.0 0.0 xyz
   end
   begin
      id 7
      name Spine_dum3
      direction 0.000000 1.000000 0.000000
      length 8.977654
      axis 0.0 0.0 0.0 xyz
   end
   begin
      id 8
      name Head
      direction 0.000000 1.000000 0.000000
      length 4.527550
      axis 0.0 0.0 0.0 xyz
      dof rx ry rz
   end
   begin
      id 9
      name LeftShoulder
      direction 1.000000 0.000000 0.000000
      length 7.110130
      axis 0.0 0.0 -90.0 xyz
      dof rx ry rz
   end
   begin
      id 10
      name LeftArm
      direction 1.000000 0.000000 0.000000
      length 10.398341
      axis 0.0 0.0 -90.0 xyz
      dof rx ry rz
   end
   begin
      id 11
      name LeftForeArm
      direction 1.000000 0.000000 0.000000
      length 8.888997
      axis 0.0 0.0 -90.0 xyz
      dof ry rz rx
   end
   begin
      id 12
      name LeftHand
      direction 0.000000 0.000000 0.000000
      length 0.000000
      axis 0.0 0.0 -90.0 xyz
      dof rx ry rz
   end
   begin
      id 13
      name LeftHand_dum1
      direction 0.000000 0.000000 0.000000
      length 0.000000
      axis 0.0 0.0 -90.0 xyz
   end
   begin
      id 14
      name LeftHand_dum2
      direction 1.000000 0.000000 0.000000
      length 3.937000
      axis 0.0 0.0 -90.0 xyz
   end
   begin
      id 15
      name LeftHandThumb1
      direction 0.000000 0.000000 1.000000
      length 3.937000
      axis 0.0 0.0 -90.0 xyz
      dof rx rz ry
   end
   begin
      id 16
      name RightShoulder
      direction -1.000000 0.000000 0.000000
      length 7.110130
      axis 0.0 0.0 90.0 xyz
      dof rx ry rz
   end
   begin
      id 17
      name RightArm
      direction -1.000000 0.000000 0.000000
      length 10.398341
      axis 0.0 0.0 90.0 xyz
      dof rx ry rz
   end
   begin
      id 18
      name RightForeArm
      direction -1.000000 0.000000 0.000000
      length 8.888997
      axis 0.0 0.0 90.0 xyz
      dof ry rz rx
   end
   begin
      id 19
      name RightHand
      direction 0.000000 0.000000 0.000000
      length 0.000000
      axis 0.0 0.0 90.0 xyz
      dof rx ry rz
   end
   begin
      id 20
      name RightHand_dum1
      direction 0.000000 0.000000 0.000000
      length 0.000000
      axis 0.0 0.0 90.0 xyz
   end
   begin
      id 21
      name RightHand_dum2
      direction -1.000000 0.000000 0.000000
      length 3.937000
      axis 0.0 0.0 90.0 xyz
   end
   begin
      id 22
      name RightHandThumb1
      direction 0.000000 0.000000 1.000000
      length 3.937000
      axis 0.0 0.0 90.0 xyz
      dof rx rz ry
   end
   begin
      id 23
      name LeftUpLeg
      direction 0.000000 -1.000000 0.000000
      length 15.510451
      axis 0.0 0.0 0.0 xyz
      dof rx ry rz
   end
   begin
      id 24
      name LeftLeg
      direction 0.000000 -1.000000 0.000000
      length 14.858061
      axis 0.0 0.0 0.0 xyz
      dof rx ry rz
   end
   begin
      id 25
      name LeftFoot
      direction 0.000000 -0.258819 0.965926
      length 5.128852
      axis 15.0 0.0 0.0 xyz
      dof rx ry rz
   end
   begin
      id 26
      name LeftToeBase
      direction 0.000000 0.000000 1.000000
      length 2.952750
      axis 0.0 0.0 0.0 xyz
      dof rx ry rz
   end
   begin
      id 27
      name RightUpLeg
      direction 0.000000 -1.000000 0.000000
      length 15.510451
      axis 0.0 0.0 0.0 xyz
      dof rx ry rz
   end
   begin
      id 28
      name RightLeg
      direction 0.000000 -1.000000 0.000000
      length 14.858061
      axis 0.0 0.0 0.0 xyz
      dof rx ry rz
   end
   begin
      id 29
      name RightFoot
      direction 0.000000 -0.258819 0.965926
      length 5.128852
      axis 15.0 0.0 0.0 xyz
      dof rx ry rz
   end
   begin
      id 30
      name RightToeBase
      direction 0.000000 0.000000 1.000000
      length 2.952750
      axis 0.0 0.0 0.0 xyz
      dof rx ry rz
   end
:hierarchy
   begin
      root Spine_dum LeftUpLeg_dum RightUpLeg_dum
      Spine_dum Spine
      LeftUpLeg_dum LeftUpLeg
      RightUpLeg_dum RightUpLeg
      Spine Spine_dum1 Spine_dum2 Spine_dum3
      Spine_dum1 Head
      Spine_dum2 LeftShoulder
      Spine_dum3 RightShoulder
      LeftShoulder LeftArm
      LeftArm LeftForeArm
      LeftForeArm LeftHand
      LeftHand LeftHand_dum1 LeftHand_dum2
      LeftHand_dum1 LeftHandThumb1
      RightShoulder RightArm
      RightArm RightForeArm
      RightForeArm RightHand
      RightHand RightHand_dum1 RightHand_dum2
      RightHand_dum1 RightHandThumb1
      LeftUpLeg LeftLeg
      LeftLeg LeftFoot
      LeftFoot LeftToeBase
      RightUpLeg RightLeg
      RightLeg RightFoot
      RightFoot RightToeBase
   end

# File created by Blade
# Date/Time:  Tue Jan 27 19:32:37 2015
# Frame Rate: 120.000 fps
#------------------------------------------------------
:FULLY-SPECIFIED
:DEGREES
782
root 4.594458 32.253593 -0.570067 -5.313347 13.051156 1.214860
Spine 2.442841 25.647708 1.942147
Head 7.700507 -18.234957 4.622462
LeftShoulder 1.077746 -12.909145 23.971767
LeftArm 0.873631 50.016151 -103.084864
LeftForeArm 1.710240 0.000000 9.474912
LeftHand 10.479409 -0.000000 -7.618870
LeftHandThumb1 -26.253704 0.000000 33.147579
RightShoulder 5.094566 17.425220 -33.053544
RightArm 37.595891 -0.656373 123.062359
RightForeArm 5.243459 0.000000 112.819076
RightHand 26.849108 -0.000000 -8.183980
RightHandThumb1 -24.326973 -0.000000 -32.862282
LeftUpLeg 9.784818 -6.841051 -4.466729
LeftLeg 2.996186 -0.000000 -0.000000
LeftFoot -17.976764 15.454942 -20.485391
LeftToeBase 16.608485 -0.000000 -0.000000
RightUpLeg 13.032701 -18.914833 -2.954411
RightLeg -0.414254 -0.000000 0.000000
RightFoot -14.211591 -14.733595 16.148855
RightToeBase 10.053540 -0.000000 -0.000000
783
root 4.597952 32.254706 -0.569577 -5.305845 13.007966 1.203798
Spine 2.412674 25.802461 1.915082
Head 7.628107 -18.536271 4.669131
LeftShoulder 1.228801 -12.995540 23.961282
LeftArm 0.806001 49.928331 -103.148242
LeftForeArm 1.738173 0.000000 9.429533
LeftHand 10.500948 -0.000000 -7.635451
LeftHandThumb1 -26.253704 0.000000 33.147579
RightShoulder 4.797854 17.300804 -33.110726
RightArm 37.648721 -0.458846 122.892675
RightForeArm 4.899754 -0.000000 112.801067
RightHand 26.738668 0.000000 -7.960533
RightHandThumb1 -24.326973 -0.000000 -32.862282
LeftUpLeg 9.784463 -6.759631 -4.452707
LeftLeg 2.984782 -0.000000 -0.000000
LeftFoot -17.970272 15.434211 -20.481691
LeftToeBase 16.640663 -0.000000 -0.000000
RightUpLeg 13.001269 -18.857882 -2.936872
RightLeg -0.391832 -0.000000 0.000000
RightFoot -14.200394 -14.745017 16.164397
RightToeBase 10.004093 -0.000000 -0.000000
784
root 4.599548 32.255604 -0.570582 -5.302401 12.986230 1.200914
Spine 2.388280 25.736624 1.879083
Head 7.589213 -18.658803 4.668960
LeftShoulder 1.221492 -12.944523 23.967321
LeftArm 0.832592 49.883237 -103.113672
LeftForeArm 1.847715 -0.000000 9.385986
LeftHand 10.393432 -0.000000 -7.010125
LeftHandThumb1 -26.253704 0.000000 33.147579
RightShoulder 4.648317 17.206307 -33.159183
RightArm 37.763998 -0.309831 122.630992
RightForeArm 4.610365 0.000000 112.766907
RightHand 26.939976 -0.000000 -8.620057
RightHandThumb1 -24.326973 -0.000000 -32.862282
LeftUpLeg 9.778345 -6.726176 -4.449264
LeftLeg 2.989171 -0.000000 -0.000000
LeftFoot -17.982041 15.432947 -20.491982
LeftToeBase 16.639284 -0.000000 -0.000000
RightUpLeg 12.978685 -18.820300 -2.927900
RightLeg -0.368419 -0.000000 0.000000
RightFoot -14.201120 -14.759393 16.169176
RightToeBase 10.065981 -0.000000 -0.000000
785
root 4.602170 32.256031 -0.571375 -5.315006 12.952867 1.203200
Spine 2.390893 25.613829 1.860792
Head 7.566380 -18.738800 4.621656
LeftShoulder 1.166289 -12.873446 23.975680
LeftArm 0.841881 49.836364 -103.081625
LeftForeArm 1.850749 0.000000 9.376796
LeftHand 10.393147 -0.000000 -6.944745
LeftHandThumb1 -26.253704 0.000000 33.147579
RightShoulder 4.551912 17.175761 -33.197569
RightArm 37.850307 -0.144857 122.261736
RightForeArm 4.328079 -0.000000 112.688374
RightHand 26.389531 -0.000000 -7.894775
RightHandThumb1 -24.326973 -0.000000 -32.862282
LeftUpLeg 9.802994 -6.680217 -4.454397
LeftLeg 2.971239 -0.000000 -0.000000
LeftFoot -17.973061 15.438889 -20.482635
LeftToeBase 16.613833 -0.000000 -0.000000
RightUpLeg 12.964374 -18.784304 -2.932042
RightLeg -0.330335 -0.000000 0.000000
RightFoot -14.210768 -14.770937 16.151607
RightToeBase 9.983821 -0.000000 -0.000000
786
root 4.603593 32.256444 -0.572624 -5.325976 12.925808 1.196996
Spine 2.390766 25.427010 1.852462
Head 7.553650 -18.763651 4.546536
LeftShoulder 1.078488 -12.808525 23.992500
LeftArm 0.791331 49.763881 -103.092081
LeftForeArm 1.931051 0.000000 9.393255
LeftHand 10.269790 -0.000000 -7.287329
LeftHandThumb1 -26.253704 0.000000 33.147579
RightShoulder 4.478115 17.099833 -33.237021
RightArm 38.030176 0.008277 121.857694
RightForeArm 4.450388 -0.000000 112.594447
RightHand 26.975601 -0.000000 -8.324548
RightHandThumb1 -24.326973 -0.000000 -32.862282
LeftUpLeg 9.811903 -6.583679 -4.438332
LeftLeg 2.967461 -0.000000 -0.000000
LeftFoot -17.933101 15.399178 -20.427911
LeftToeBase 16.619224 -0.000000 -0.000000
RightUpLeg 12.946277 -18.728833 -2.920727
RightLeg -0.291881 -0.000000 0.000000
RightFoot -14.229816 -14.791332 16.164848
RightToeBase 10.023527 -0.000000 -0.000000
787
root 4.607856 32.257229 -0.574848 -5.323130 12.906132 1.212491
Spine 2.382010 25.238607 1.822557
Head 7.535591 -18.766558 4.449405
LeftShoulder 0.999726 -12.695487 23.989545
LeftArm 0.809281 49.714687 -103.032840
LeftForeArm 1.940074 -0.000000 9.418481
LeftHand 10.253515 -0.000000 -7.293745
LeftHandThumb1 -26.253704 0.000000 33.147579
RightShoulder 4.332711 16.963803 -33.332335
RightArm 38.198118 0.180662 121.529481
RightForeArm 4.649121 -0.000000 112.519961
RightHand 26.991307 -0.000000 -8.159740
RightHandThumb1 -24.326973 -0.000000 -32.862282
LeftUpLeg 9.806113 -6.409700 -4.430000
LeftLeg 2.967950 -0.000000 -0.000000
LeftFoot -17.881267 15.269946 -20.406721
LeftToeBase 16.672054 -0.000000 -0.000000
RightUpLeg 12.916356 -18.686627 -2.938691
RightLeg -0.244898 -0.000000 0.000000
RightFoot -14.252062 -14.784928 16.190983
RightToeBase 9.976814 -0.000000 -0.000000
788
root 4.611489 32.258312 -0.576886 -5.311685 12.898083 1.218394
Spine 2.357364 24.980388 1.793508
Head 7.521800 -18.704065 4.344769
LeftShoulder 0.892390 -12.583232 23.995501
LeftArm 0.761058 49.608211 -103.019261
LeftForeArm 1.971296 -0.000000 9.463623
LeftHand 10.266235 -0.000000 -7.245060
LeftHandThumb1 -26.253704 0.000000 33.147579
RightShoulder 4.217329 16.863395 -33.407274
RightArm 38.384925 0.308869 121.081751
RightForeArm 4.641117 -0.000000 112.383626
RightHand 27.080471 -0.000000 -8.552050
RightHandThumb1 -24.326973 -0.000000 -32.862282
LeftUpLeg 9.792836 -6.310636 -4.423333
LeftLeg 2.963056 -0.000000 -0.000000
LeftFoot -17.840626 15.199591 -20.382822
LeftToeBase 16.652222 -0.000000 -0.000000
RightUpLeg 12.886829 -18.658858 -2.942939
RightLeg -0.216588 -0.000000 0.000000
RightFoot -14.268287 -14.805065 16.167394
RightToeBase 10.056325 -0.000000 -0.000000
789
root 4.616274 32.259115 -0.580855 -5.294976 12.883418 1.228884
Spine 2.332336 24.744863 1.752846
Head 7.492694 -18.687166 4.264547
LeftShoulder 0.806281 -12.431492 24.003311
LeftArm 0.784186 49.508245 -102.958179
LeftForeArm 2.004875 -0.000000 9.515401
LeftHand 10.294536 -0.000000 -7.200340
LeftHandThumb1 -26.253704 0.000000 33.147579
RightShoulder 4.079902 16.786783 -33.469039
RightArm 38.523735 0.515605 120.646664
RightForeArm 4.767783 -0.000000 112.346932
RightHand 26.877846 -0.000000 -8.365018
RightHandThumb1 -24.326973 -0.000000 -32.862282
LeftUpLeg 9.772471 -6.232962 -4.428035
LeftLeg 2.963042 -0.000000 -0.000000
LeftFoot -17.792656 15.167474 -20.319477
LeftToeBase 16.614204 -0.000000 -0.000000
RightUpLeg 12.843154 -18.620079 -2.944769
RightLeg -0.181004 -0.000000 0.000000
RightFoot -14.289773 -14.822959 16.207500
RightToeBase 10.043836 -0.000000 -0.000000
790
root 4.618736 32.259681 -0.585082 -5.281751 12.881796 1.225888
Spine 2.302166 24.483220 1.714589
Head 7.485491 -18.674969 4.199368
LeftShoulder 0.736241 -12.335152 24.020381
LeftArm 0.720304 49.407652 -102.962150
LeftForeArm 2.041568 -0.000000 9.578582
LeftHand 10.266188 -0.000000 -7.202811
LeftHandThumb1 -26.253704 0.000000 33.147579
RightShoulder 3.946550 16.801472 -33.574099
RightArm 38.580652 0.777474 120.169669
RightForeArm 4.738336 -0.000000 112.259802
RightHand 26.875311 -0.000000 -8.749792
RightHandThumb1 -24.326973 -0.000000 -32.862282
LeftUpLeg 9.759097 -6.233095 -4.430074
LeftLeg 2.947249 -0.000000 -0.000000
LeftFoot -17.790442 15.166775 -20.349905
LeftToeBase 16.636759 -0.000000 -0.000000
RightUpLeg 12.806529 -18.575195 -2.927737
RightLeg -0.161420 -0.000000 0.000000
RightFoot -14.298695 -14.888973 16.207440
RightToeBase 9.960140 -0.000000 -0.000000
791
root 4.623098 32.260714 -0.588164 -5.265479 12.877958 1.225842
Spine 2.259454 24.209865 1.668966
Head 7.494551 -18.656365 4.144055
LeftShoulder 0.672579 -12.219454 24.031369
LeftArm 0.656001 49.293933 -102.965597
LeftForeArm 2.061373 -0.000000 9.636397
LeftHand 10.266320 0.000000 -7.203746
LeftHandThumb1 -26.253704 0.000000 33.147579
RightShoulder 3.848713 16.707165 -33.651155
RightArm 38.728663 1.025981 119.711545
RightForeArm 4.881467 0.000000 112.200582
RightHand 26.906480 0.000000 -8.915090
RightHandThumb1 -24.326973 -0.000000 -32.862282
LeftUpLeg 9.738434 -6.159079 -4.422320
LeftLeg 2.942957 -0.000000 -0.000000
LeftFoot -17.743158 15.116670 -20.312182
LeftToeBase 16.571129 -0.000000 -0.000000
RightUpLeg 12.773699 -18.546085 -2.923283
RightLeg -0.139751 -0.000000 0.000000
RightFoot -14.309106 -14.906018 16.221102
RightToeBase 10.034188 -0.000000 -0.000000
792
root 4.627613 32.261512 -0.591809 -5.237693 12.874315 1.223857
Spine 2.211025 23.923968 1.616825
Head 7.478092 -18.660375 4.082707
LeftShoulder 0.592163 -12.076338 24.050755
LeftArm 0.632147 49.171517 -102.950929
LeftForeArm 2.079684 0.000000 9.674413
LeftHand 10.313156 -0.000000 -7.197231
LeftHandThumb1 -26.253704 0.000000 33.147579
RightShoulder 3.706075 16.554494 -33.685683
RightArm 38.930137 1.245707 119.203521
RightForeArm 5.155058 -0.000000 112.153407
RightHand 27.061381 -0.000000 -9.753436
RightHandThumb1 -24.326973 -0.000000 -32.862282
LeftUpLeg 9.713059 -6.091119 -4.406299
LeftLeg 2.924064 -0.000000 -0.000000
LeftFoot -17.756861 15.005828 -20.408016
LeftToeBase 16.812848 -0.000000 -0.000000
RightUpLeg 12.729800 -18.518086 -2.912997
RightLeg -0.126130 -0.000000 0.000000
RightFoot -14.313220 -14.923839 16.247787
RightToeBase 9.993718 -0.000000 -0.000000
793
root 4.631172 32.262219 -0.595069 -5.193778 12.879510 1.230893
Spine 2.136784 23.656896 1.526719
Head 7.462618 -18.680661 4.072242
LeftShoulder 0.550050 -11.998977 24.082412
LeftArm 0.530396 49.063767 -102.997436
LeftForeArm 2.090119 -0.000000 9.710422
LeftHand 10.402664 -0.000000 -7.509704
LeftHandThumb1 -26.253704 0.000000 33.147579
RightShoulder 3.528467 16.393943 -33.709138
RightArm 39.105085 1.489737 118.650709
RightForeArm 5.210172 -0.000000 112.114598
RightHand 27.025695 -0.000000 -9.773521
RightHandThumb1 -24.326973 -0.000000 -32.862282
LeftUpLeg 9.671594 -6.031444 -4.403781
LeftLeg 2.905062 -0.000000 -0.000000
LeftFoot -17.667133 14.982278 -20.281249
LeftToeBase 16.669817 -0.000000 -0.000000
RightUpLeg 12.674537 -18.525392 -2.911105
RightLeg -0.113282 -0.000000 0.000000
RightFoot -14.315347 -14.935076 16.234591
RightToeBase 10.050815 -0.000000 -0.000000
